<svg id="Layer_1" data-name="Layer 1" xmlns="http://www.w3.org/2000/svg" viewBox="0 0 500 500"><defs><style>.cls-1{fill:#fff;}.cls-2{fill:#729e6b;}.cls-3{fill:#addfb5;}.cls-4{fill:#28c524;}.cls-5{fill:#070707;}.cls-6{fill:#249d1a;}.cls-7{fill:#090909;}.cls-8{fill:#060606;}.cls-9{fill:#23a11b;}.cls-10{fill:#fced38;}.cls-11{fill:#acdfb5;}.cls-12{fill:#259e1c;}.cls-13{fill:#040404;}.cls-14{fill:#229d19;}.cls-15{fill:#71c5d2;}.cls-16{fill:#4f7574;}.cls-17{fill:#94c8aa;}.cls-18{fill:#e7da52;}.cls-19{fill:#6a7d91;}.cls-20{fill:#ecf5f8;}.cls-21{fill:#cf0e17;}.cls-22{fill:#d3deee;}.cls-23{fill:#f7e740;}.cls-24{fill:#bccfe2;}</style></defs><path class="cls-1" d="M402.64,500H97.36A97.36,97.36,0,0,1,0,402.64V97.36A97.36,97.36,0,0,1,97.36,0H402.64A97.36,97.36,0,0,1,500,97.36V402.64A97.36,97.36,0,0,1,402.64,500Z"/><path class="cls-2" d="M246.35,54.39h10.23a4.18,4.18,0,0,0,.05.61l-10.29,0A1.34,1.34,0,0,0,246.35,54.39Z"/><path class="cls-3" d="M256.63,55a4.18,4.18,0,0,1-.05-.61h6.59a2,2,0,0,0,0,.69Z"/><path class="cls-3" d="M246.35,54.39a1.34,1.34,0,0,1,0,.66h-5.87a2.49,2.49,0,0,0,0-.67Z"/><path class="cls-4" d="M298.32,68.21c3.45.64,7,.94,10.35,2,22.63,7,31.43,34.83,17.07,53.68-1.1,1.44-2.18,2.91-3.26,4.36a9.11,9.11,0,0,0-2.22,1.06c-9,8-19.6,9.1-30.74,7-6.59-1.25-13-3.42-19.8-5.26a11.41,11.41,0,0,0,4.39,6.92c2.59,2,5.21,3.95,7.93,5.76a23,23,0,0,1,9.28,12.2,38.86,38.86,0,0,0,3,7.39c1.84,3.12,4,6.15,8.13,6.58,1.75.73,3.43,1.79,5.24,2.13,7.26,1.39,13.56-.65,18.44-6.2a94.15,94.15,0,0,0,7.15-9.66c3.74-5.54,7.2-11.27,11-16.78a72.05,72.05,0,0,1,20.4-19.57c8.39-5.44,17.22-7.93,27.34-6.29,17.72,2.88,31,11.75,38.84,28a41.25,41.25,0,0,1,2.65,29.84,21.3,21.3,0,0,1-11.31,13.84c.42-2.29.8-4.39,1.19-6.5.39-.25,1.05-.42,1.14-.75,1.47-5.44,3.22-10.75,2.53-16.64-1.15-9.84-5.69-17.46-13.79-22.89-7.68-5.14-16-7.73-25.48-5.87-11.3,2.21-19.25,8.78-25.35,18-1.8,2.73-3.05,5.83-4.9,8.52-3.08,4.5-6.39,8.84-9.69,13.18-3.68,4.85-7.6,9.56-12.84,12.78-9,5.56-18.5,10.19-29.47,10.7a26.75,26.75,0,0,0,5.94,1c2,0,4.09-.41,6.13-.51a28.75,28.75,0,0,0,14.77-4.49,39.63,39.63,0,0,1,6.51-4c8-3.29,16.13-4.29,24.14.2a4.38,4.38,0,0,0,1.43.23,37.28,37.28,0,0,0,2.51,3.07,18.25,18.25,0,0,1,5.5,10.87c.85,6.94.91,13.79-2.46,20.3-3.52,6.83-8.7,11.61-16,14-1.45.47-2.9,1-4.42,1.51a93.36,93.36,0,0,1,8.38,4.27c7.93,5.14,12.17,12.52,12.06,22-.13,11.46-10.26,21.13-21.67,21.34-4.34.08-8.42-1-12.57-1.85l-1.66-.62,1,1.26c2.21,3.19,4.57,6.29,6.6,9.59a38.83,38.83,0,0,1,6.07,19.24c.51,15.16-7.86,28.09-22.45,33.09-8.73,3-17.52,3.75-26.41.6a31.6,31.6,0,0,1-10.9-6.44c-1.52-1.39-3.1-2.72-4.65-4.08L279.9,330a34.91,34.91,0,0,1,3,1.79,33.67,33.67,0,0,0,2.74,2.37A45.08,45.08,0,0,0,301.57,340c2.38.35,4.84.92,7.19.67a36.22,36.22,0,0,0,13.79-4.27,17.09,17.09,0,0,0,8.64-11.55,22.78,22.78,0,0,0,0-10c-1.16-5.79-3.23-11.11-7.43-15.49a65.22,65.22,0,0,0-13.37-10.56c3-6.39,6.15-12.69,7.75-19.62,1.69.64,3.57,1,5,2,5.77,3.89,12.25,5.79,18.94,7.19,3.78.79,7.52.79,11-1.1,3.88-2.09,4-6,.73-8.81-4.79-4-10.59-5.29-16.4-6.45-6.17-1.24-12.42-2-18.61-3.12a54.13,54.13,0,0,0-11.86-.65c-4.14.17-8.29.11-12.43,0-5.58-.14-11.15-.55-16.73-.59-1.79,0-3.93-.15-5.12,1.87h-4.72l-.22-.86c1.88-1.21,3.68-2.55,5.64-3.6,2.74-1.47,5.59-2.71,8.4-4.06l9.21-4,19.81-6.19L330.93,239c-.39-.63-.47-.94-.62-1a17.85,17.85,0,0,0-1.79-.22c-4.92-.5-9.91-.66-14.76-1.54-13.66-2.48-25.91-7.8-35.29-18.53a11.71,11.71,0,0,0-3-1.8h.05l-.82-1.48.09,0-.9-.79-1.23-3.7,0,0c.86.39,1.75.75,2.6,1.16,5,2.45,10,4.93,15.65,5.49,5.67,1.6,11.35,3.18,17.31,1.36a4.53,4.53,0,0,0-.21-1c-.38-.62-.77-1.24-1.2-1.82a70.78,70.78,0,0,0-16-15.81c-5.17-3.72-10.91-6.31-16.75-8.73a8.38,8.38,0,0,0-1.77-6.5l-1.82,5.36L260.38,188a4.26,4.26,0,0,1-.26-.62c8.21-12.38,15.22-30.5,14.36-37.25-7.61.44-15.23,1.21-22.85,1.2s-15.15-.79-23.2-1.26c.7,3.13,1.15,5.76,1.89,8.3,3,10.57,6.66,20.87,13.85,29.5L234,189.75l-3-5.85c-2,2.56-1.47,4.86-.77,7.18-1.69.9-3.33,1.95-5.09,2.7-11,4.69-19.68,12.29-26.69,21.89a21.55,21.55,0,0,0-1.37,2.62c3.85-.28,7.21.34,10.48-.87l10.22-2.17,9.45-3.5c1-.36,2-.69,3-1,0,.51,0,1,0,1.54l0,0-.71.78h0c-1.56,1.66-3.18,3.28-4.69,5-6.62,7.54-15.06,12.2-24.39,15.45-9.64,3.35-19.65,4.25-29.78,4.43-1.46,0-3-.37-4.41.77a10.1,10.1,0,0,0,3.35.58c3.53.12,7.06.1,10.57.34,4,.28,8,.76,11.95,1.16,4.08,1.14,8.18,2.27,12.26,3.44,2.22.64,4.42,1.34,6.63,2l3.83,1.54,9.23,4c1.82.89,3.66,1.76,5.47,2.69a17.41,17.41,0,0,1,6.4,5h-3.56c-.29-.35-.56-1-.89-1a54.73,54.73,0,0,0-7.93-.84c-8.13.1-16.25.47-24.38.64-1.92,0-3.86-.57-5.76-.44-3.61.24-7.22.66-10.79,1.24-6.91,1.13-13.83,2.3-20.69,3.7a30.05,30.05,0,0,0-12.2,5.53,5.25,5.25,0,0,0,.47,8.84,10.12,10.12,0,0,0,2,.88,18.91,18.91,0,0,0,10.43.42A56,56,0,0,0,180.84,271c2-1.25,4.45-1.74,6.7-2.57,1.14,3.52,2.15,7.09,3.45,10.56,1.18,3.13,2.66,6.14,4,9.21-1.65,1-3.31,1.93-4.95,2.93-5.55,3.42-10.5,7.57-13.84,13.2a28.74,28.74,0,0,0-3.82,19.14,16.71,16.71,0,0,0,9.14,13.13c5.43,3,11.18,3.78,17.25,3.51A35.37,35.37,0,0,0,221,331.47a14.24,14.24,0,0,1,2.75-1.49l-3.14,5.8c-5.19,5.88-11.33,10.17-19.14,11.91a40.28,40.28,0,0,1-26.64-2.86c-15.56-7.33-22.72-24.65-17.28-41.42a53.65,53.65,0,0,1,7.92-15.09l3-4.11c.07-.25.13-.51.19-.77l-.74.26c-3.33.59-6.65,1.33-10,1.74-9.26,1.16-16.06-2.8-20.73-10.57s-5.13-15.81-.2-23.75c4-6.4,8.12-9.52,17.51-13.17l-4.83-1.58A26.24,26.24,0,0,1,131.85,218c-2.75-9.8-2.34-19.84,5.8-27.82a11.82,11.82,0,0,0,1.38-2.09c1.36-.47,2.76-.84,4.07-1.43a21.32,21.32,0,0,1,10.23-2c6,.39,11.46,2.75,16.54,6.06,3.74,2.43,7.57,4.88,12.35,4.91a21.47,21.47,0,0,1,6.11.68c3.37,1,6.49.4,9.64-.63-1.69-.25-3.41-.16-5.07-.44a59.24,59.24,0,0,1-19.29-7.37,50.29,50.29,0,0,1-8.55-5.5c-7.27-6.38-13-14-18-22.33-4-6.65-7.79-13.37-13.64-18.78A34.57,34.57,0,0,0,112.91,132C100,130.76,89.67,136.43,82,146.44c-5.41,7-6.93,15.4-5.07,24.11.7,3.27,2.22,6.35,3.37,9.52.38,1.62.75,3.25,1.26,5.44A13.12,13.12,0,0,1,79,184.3a27.17,27.17,0,0,1-10.24-20.19c-1.48-23.77,13.84-44.13,37.48-49.79,11.12-2.65,21.55-1.38,31.51,4.77,10.63,6.56,18.71,15.4,25.45,25.69,4.33,6.62,8.5,13.35,13.21,19.68,5.49,7.4,14,9.76,22.44,6.86a12.86,12.86,0,0,0,2.41-1.47c1.23-.46,2.66-.66,3.63-1.44a17.09,17.09,0,0,0,5.63-7.46c1.22-3.29,2.84-6.42,4.17-9.67a16.34,16.34,0,0,1,5.55-6.64,54.24,54.24,0,0,1,7.62-4.94c3.59-1.87,4.92-5,6.22-9.16-1.72.61-2.91,1.05-4.12,1.44-8,2.66-16.11,5.08-24.77,5.07-7.59,0-14.33-2-20.29-6.65a32.94,32.94,0,0,0-3.65-2.23c-1.17-1.55-2.36-3.07-3.5-4.64a34.42,34.42,0,0,1,22.74-54.65c1.89-.3,3.74-.87,5.61-1.32.3,1.78,1.71,1.28,2.85,1.46,3.45.56,7,.76,10.29,1.88,9.05,3.09,16.85,8.44,24.14,14.53,5.9,4.94,9.55,5.24,15.29,1.18l1.48-1.06c4.32-3.1,8.5-6.44,13-9.24,7-4.32,14.37-7.56,22.86-7.36A7.43,7.43,0,0,0,298.32,68.21Zm-95.89,61.41.85.58,6.89,0c15.77-2.38,26-16.75,22.78-32A26.51,26.51,0,0,0,207.2,76.91c-12.78-.16-23.9,8.31-26.55,20.22-3.34,15,4.7,25.92,14.51,30.77,2.2,1.09,4.87,1.22,7.33,1.8Zm90.81.08c2.53,1.51,5.2.49,7.81.43.35-.08.71-.18,1.07-.25A26.8,26.8,0,1,0,286.42,79c-13,5.44-19.23,19.56-14.81,33.3C274.78,122.13,283.59,129.22,293.24,129.7Zm-97.35,88.56c-1.45-.51-2.91-1-4.34-1.55a58.64,58.64,0,0,1-25-17.67c-3.65-4.49-7.9-7.16-13.42-7.65-2.25-.21-4.86-.23-6.89,1.42-3.8,3.08-4,7.19-.6,11.16a29.27,29.27,0,0,0,13,8.38c7.25,2.49,14.82,3.53,22.29,5C185.78,218.31,190.66,219.25,195.89,218.26Zm114.06,0,.25.69c3.35-.41,6.71-.76,10-1.25,3.58-.53,7.16-1.13,10.71-1.83,6.78-1.33,13.56-2.66,19.74-6a21.84,21.84,0,0,0,8.88-8.37,5.78,5.78,0,0,0-1.31-7.83,10.38,10.38,0,0,0-8.84-2.39,17.66,17.66,0,0,0-12,7.5A48.4,48.4,0,0,1,315,216.62C313.37,217.26,311.64,217.7,310,218.24Z"/><path class="cls-5" d="M339.79,442.69H321.92l-9-37-.62-.06L303,442.73c-2.82,0-5.69,0-8.56.06h-9.12c-4.83-16.83-9.64-33.6-14.54-50.66h-6V380.79H291v11l-6.1.31,8.61,31.49.76,0c3.52-14.19,7.05-28.38,10.6-42.72h15.44c3.43,14.1,6.91,28.37,10.4,42.66,1.51-1.77,7.28-21.46,9.19-31.41h-6.64V380.76H359.5v11.1h-5.37C349.34,408.85,344.6,425.65,339.79,442.69Z"/><path class="cls-5" d="M97.76,444.09a28.33,28.33,0,0,1-21.94-9.85c-11.24-12.56-11.11-32.76.21-45.07a29.1,29.1,0,0,1,44.31,1.22,34.29,34.29,0,0,1,0,42.86A29.14,29.14,0,0,1,97.76,444.09ZM81.61,411.87a20.39,20.39,0,0,0,4.74,13.81,14.52,14.52,0,0,0,22.58.1c6.41-7.51,6.36-20.51-.09-28a14.45,14.45,0,0,0-22.79.49A20.76,20.76,0,0,0,81.61,411.87Z"/><path class="cls-6" d="M80.26,180.07c-1.15-3.17-2.67-6.25-3.37-9.52-1.86-8.71-.34-17.08,5.07-24.11,7.71-10,18.05-15.68,31-14.43a34.57,34.57,0,0,1,20.54,9.26c5.85,5.41,9.65,12.13,13.64,18.78,5,8.28,10.7,15.95,18,22.33a50.29,50.29,0,0,0,8.55,5.5,59.24,59.24,0,0,0,19.29,7.37c1.66.28,3.38.19,5.07.44-3.15,1-6.27,1.64-9.64.63a21.47,21.47,0,0,0-6.11-.68c-4.78,0-8.61-2.48-12.35-4.91-5.08-3.31-10.52-5.67-16.54-6.06a21.32,21.32,0,0,0-10.23,2c-1.31.59-2.71,1-4.07,1.43-2.51-4.14-5.4-8.11-7.45-12.47-3.24-6.93-5.88-14.13-8.84-21.19a40.22,40.22,0,0,0-2.75-5.54c-4.14-6.66-10.89-9.12-18.29-6.63-11.44,3.86-18,12.21-20.44,23.66C80.27,170.52,80.55,175.36,80.26,180.07Z"/><path class="cls-6" d="M364.47,188.12a4.38,4.38,0,0,1-1.43-.23c-8-4.49-16.11-3.49-24.14-.2a39.63,39.63,0,0,0-6.51,4,28.75,28.75,0,0,1-14.77,4.49c-2,.1-4.09.54-6.13.51a26.75,26.75,0,0,1-5.94-1c11-.51,20.43-5.14,29.47-10.7,5.24-3.22,9.16-7.93,12.84-12.78,3.3-4.34,6.61-8.68,9.69-13.18,1.85-2.69,3.1-5.79,4.9-8.52,6.1-9.26,14.05-15.83,25.35-18,9.51-1.86,17.8.73,25.48,5.87,8.1,5.43,12.64,13,13.79,22.89.69,5.89-1.06,11.2-2.53,16.64-.09.33-.75.5-1.14.75.09-5.1,0-10.19-1.57-15.12-3.42-10.78-10-18.46-21.21-21.55-6.59-1.82-12.88.39-16.49,6.14a69.74,69.74,0,0,0-4.72,9.81c-2.83,6.56-5.32,13.29-8.37,19.74C369.29,181.36,366.69,184.65,364.47,188.12Z"/><path class="cls-6" d="M298.32,68.21A7.43,7.43,0,0,1,296,69c-8.49-.2-15.9,3-22.86,7.36-4.52,2.8-8.7,6.14-13,9.24l-1.48,1.06c-5.74,4.06-9.39,3.76-15.29-1.18C236.08,79.34,228.28,74,219.23,70.9c-3.26-1.12-6.84-1.32-10.29-1.88-1.14-.18-2.55.32-2.85-1.46,6.12-5.29,13.42-8.22,21.13-10.16,4.34-1.09,8.83-1.58,13.25-2.34h5.87l10.29,0,6.56.08c9.73,1,19.14,3.11,27.72,8C293.51,64.55,295.85,66.48,298.32,68.21Zm-72.45-1.34A5.34,5.34,0,0,0,231,72.65a5.53,5.53,0,0,0,5.78-5.28c.1-2.34-3.28-5.63-5.76-5.62A5.63,5.63,0,0,0,225.87,66.87Zm41.69.5c.05,3.41,1.82,5.26,5,5.28,3.39,0,5-1.93,5.26-5.51.2-2.77-2.43-5.17-5.69-5.28C269.75,61.77,267.51,64.65,267.56,67.37ZM255.85,78.64a4.43,4.43,0,0,0-4.26-4.47A3.57,3.57,0,0,0,247.8,78c-.06,3,.9,4.08,3.7,4.18C254.47,82.28,255.79,81.21,255.85,78.64Zm-4-14a3.08,3.08,0,0,0,3.2-3.13c-.11-1.37-2.1-3.39-3.32-3.35s-3.15,2.12-3.19,3.47A3.06,3.06,0,0,0,251.89,64.62Z"/><path class="cls-5" d="M237.93,444c-13.18-.06-22.48-9.45-22.42-22.65.06-12.72,9.7-22.18,22.61-22.18s22.82,9.72,22.74,22.53S251.08,444.05,237.93,444Zm-10.06-22.56c0,5.53,3.37,10,8.34,10.88a9.81,9.81,0,0,0,11.19-6.09c2.1-5.17.51-11.34-3.71-14a9.86,9.86,0,0,0-3-1.26C233.67,409.3,227.9,414.05,227.87,421.44Z"/><path class="cls-5" d="M177.71,402.82v12.43c-3.47,0-6.83.12-10.18-.08a4.94,4.94,0,0,1-2.63-1.69c-3.57-3.6-11.43-3.34-14.77,0-3.83,3.8-4.49,10.68-1.09,15.06,3.66,4.73,10.8,6.34,16.12.4.8-.9,1.43-1.94,2.26-3.09l10.94,3a14.23,14.23,0,0,1-3.57,7.16c-5.8,7.08-16.63,10-25.63,6.9-8.81-3-14.51-11.3-14.86-21-.38-10.84,6.82-20.06,16.44-22.15,5.33-1.16,10.75-1.24,15.72,1.29a15.51,15.51,0,0,0,8.37,1.78C175.67,402.77,176.52,402.82,177.71,402.82Z"/><path class="cls-7" d="M402.43,415.81H391.2c-.12-1.29-.24-2.57-.36-3.82-5.81-.62-8.07,1.31-8.1,6.84,0,4.12,0,8.23,0,12.67H391v11.31H363.67v-11.1h6V411.88l-5.84-.26v-11h18.32c.22.51.53,1.23.94,2.16,6.14-3.75,12.74-2,19.33-2.25Z"/><path class="cls-5" d="M434,433.34l1.73,7.83c-5.37,3.05-10.95,4.09-16.66,1.48-4.66-2.13-6.53-6.38-6.66-11.33s0-9.74,0-14.61v-5.34l-5.78-.26V400.54l5.78-.32V390.3l13-6.14v16.15h8.2v10.77h-7.95a22.53,22.53,0,0,0-.33,2.41c-.07,5.11-.21,10.23-.12,15.34s1.44,6,6.35,4.94C432.24,433.63,433,433.52,434,433.34Z"/><path class="cls-8" d="M198.93,400.4h8.44v10.71h-8.15a23.06,23.06,0,0,0-.32,2.68c-.05,5-.11,10-.06,14.95s1.48,6.06,6.27,5.07c.7-.15,1.4-.28,2.41-.48.33,1.36.65,2.62.94,3.89s.55,2.56.84,3.89a18.56,18.56,0,0,1-13.49,2.64,11.29,11.29,0,0,1-9.49-10.58c-.42-5.32-.19-10.68-.23-16,0-1.8,0-3.61,0-5.72l-6-.37V400.61l6.16-.45v-10l12.67-6Z"/><path class="cls-9" d="M302.47,169.86c-4.12-.43-6.29-3.46-8.13-6.58a38.86,38.86,0,0,1-3-7.39,23,23,0,0,0-9.28-12.2c-2.72-1.81-5.34-3.78-7.93-5.76a11.41,11.41,0,0,1-4.39-6.92c6.8,1.84,13.21,4,19.8,5.26,11.14,2.11,21.77,1,30.74-7a9.11,9.11,0,0,1,2.22-1.06c-.9,5.33-3.15,10.17-5.7,14.84s-5.34,9.22-8.25,13.68A43.38,43.38,0,0,0,302.47,169.86Zm-3.6-9.51c2,.05,3.65-1.11,3.68-2.59a3.36,3.36,0,0,0-3.15-3.25,3,3,0,0,0-3.31,3C296,159.47,296.77,160.29,298.87,160.35Z"/><path class="cls-9" d="M181.24,128.17a32.94,32.94,0,0,1,3.65,2.23c6,4.69,12.7,6.64,20.29,6.65,8.66,0,16.72-2.41,24.77-5.07,1.21-.39,2.4-.83,4.12-1.44-1.3,4.12-2.63,7.29-6.22,9.16a54.24,54.24,0,0,0-7.62,4.94,16.34,16.34,0,0,0-5.55,6.64c-1.33,3.25-3,6.38-4.17,9.67a17.09,17.09,0,0,1-5.63,7.46c-1,.78-2.4,1-3.63,1.44-1.12-4.53-3.53-8.45-5.81-12.46-3.95-6.94-7.89-13.9-11.56-21C182.58,133.87,182.1,130.92,181.24,128.17Zm19,16.74c0,3.2,1.8,5.19,4.72,5.19,2.45,0,4.79-2.63,4.8-5.4,0-3-1.91-4.82-5.11-4.81C201.83,139.9,200.29,141.66,200.27,144.91Z"/><path class="cls-10" d="M279.9,330l3.49,6.32c-12,3.84-24.2,5.92-36.9,4.81-6.91-.61-13.78-1.2-20.44-3.19-1.85-.55-3.6-1.4-5.4-2.11l3.14-5.8h0l1.16-.92a122.39,122.39,0,0,0,29,3.7c2.75,0,5.51-.42,8.27-.68,1.79-.17,3.58-.36,5.36-.6,3.94-.52,7.86-1.08,11.79-1.63a2.21,2.21,0,0,0,.66.13Z"/><path class="cls-11" d="M281.76,251c-2.81,1.35-5.66,2.59-8.4,4.06-2,1-3.76,2.39-5.64,3.6l.22.86h4.72l10.28.39c.46,4.69-.77,9-2.7,13.24-1.79,3.91-4.75,6.89-7.61,10l-1.33.78a25,25,0,0,0-3-2.51A48.23,48.23,0,0,1,252.87,267a12.59,12.59,0,0,1,1.6-.71c3.75-1.08,5.17-3,5.06-6.88a7,7,0,0,0-4.89-6.08,7.15,7.15,0,0,0-7.08,2.71,5.91,5.91,0,0,0,.1,7.44,32,32,0,0,0,3.8,3.34,68,68,0,0,1-15.72,14.26,12.21,12.21,0,0,0-1.88,2l-1.31-.82c-.56-.63-1.13-1.26-1.68-1.9-5.12-5.89-8.13-12.58-7.87-20.53l9.45-.41H236a17.41,17.41,0,0,0-6.4-5c-1.81-.93-3.65-1.8-5.47-2.69l4-9.76c-1.91-2.37-3.71-4.89-6.68-6.53a37,37,0,0,0-6.55,12.29l-3.83-1.54q.38-6.46.76-12.93a12.38,12.38,0,0,1,1.88-1.69A42.45,42.45,0,0,0,225.9,220.3l.72-.78,0,0c2.1-.93,4.25-1.77,6.29-2.82a41.78,41.78,0,0,1,15-4.34,42.58,42.58,0,0,1,18,1.58c3.32,1.11,6.63,2.27,9.95,3.41a15.37,15.37,0,0,1,1.36,1.68c4.86,8,11.87,13.19,20.57,16.39,4.4,1.61,8.69,3.52,13,5.3L291,246.93c-1.47-4.19-3.25-8.19-6.33-11.33l-6.77,6.25Zm-50-12.33a29.81,29.81,0,0,1,21.29-8.89c8.21-.06,15,3.5,21.49,8.47,1.55-1.45,3-2.71,4.34-4.07,2.47-2.48,2.38-3-.27-5.07A41.46,41.46,0,0,0,235.45,224c-3.88,1.94-7.66,4.16-10.14,7.74ZM244.1,251c5.26-4,9.14-4.64,14.16-2.45,4.39,1.91,4.39,1.91,7.83-1.57l1.29-1.29c1.22-1.21,1.2-2.39-.28-3.28a55,55,0,0,0-6.31-3.51c-4.17-1.82-8.67-1.51-12.91-.79a14.57,14.57,0,0,0-10.37,6.4Z"/><path class="cls-11" d="M260.38,188l10.06,1.48,3.59,1.14c5.84,2.42,11.58,5,16.75,8.73a70.78,70.78,0,0,1,16,15.81c.43.58.82,1.2,1.2,1.82a4.53,4.53,0,0,1,.21,1c-6,1.82-11.64.24-17.31-1.36-13.3-12-29.08-15.91-46.48-13.79a53.45,53.45,0,0,0-22.6,8.58,26,26,0,0,1-3.25,1.52c1.4-3.08,2.83-6.15,4.2-9.24a24,24,0,0,0,.75-2.81,64.38,64.38,0,0,0-13.76,12.82,26.66,26.66,0,0,0-2.18,3.65c-3.27,1.21-6.63.59-10.48.87a21.55,21.55,0,0,1,1.37-2.62c7-9.6,15.65-17.2,26.69-21.89,1.76-.75,3.4-1.8,5.09-2.7l3.74-1.33,10.16-1.84,1.44.28c.52.58.93,1.44,1.58,1.71a11.85,11.85,0,0,0,10.65-.62C258.67,188.83,259.53,188.45,260.38,188Z"/><path class="cls-12" d="M223.79,330a14.24,14.24,0,0,0-2.75,1.49,35.37,35.37,0,0,1-22.26,8.67c-6.07.27-11.82-.51-17.25-3.51a16.71,16.71,0,0,1-9.14-13.13,28.74,28.74,0,0,1,3.82-19.14c3.34-5.63,8.29-9.78,13.84-13.2,1.64-1,3.3-2,4.95-2.93l6.69,9.47a.88.88,0,0,0-.36.59c-2.35,1.25-4.76,2.41-7.06,3.77-8.59,5.05-11.78,12.54-9.57,22.23,1.59,7,5,9.8,12.24,10.1a40.09,40.09,0,0,0,16.72-3.1c2.41-1,4.81-2,7.24-2.92,1.4-.53,2.85-.93,4.27-1.39l0,0c0,.25-.07.5-.1.75L223.75,330Z"/><path class="cls-13" d="M245.61,188.19l-1.44-.28c-7.19-8.63-10.81-18.93-13.85-29.5-.74-2.54-1.19-5.17-1.89-8.3,8,.47,15.62,1.26,23.2,1.26s15.24-.76,22.85-1.2c.86,6.75-6.15,24.87-14.36,37.25l-4.8-.13a23.08,23.08,0,0,0,9.78-11.87,8.56,8.56,0,0,0,.71-2.8c0-3.31-3.16-6.54-6.78-7.14-4.13-.69-6.73.88-8.06,4.87-.14.43-.26.86-.4,1.29l-.66-.13c.2-1.56.41-3.11.63-4.75-2-1.52-4.32-1.33-6.6-1a7,7,0,0,0-5.5,9.58,23.88,23.88,0,0,0,10.08,12Z"/><path class="cls-12" d="M310.36,288.8a65.22,65.22,0,0,1,13.37,10.56c4.2,4.38,6.27,9.7,7.43,15.49a22.78,22.78,0,0,1,0,10,17.09,17.09,0,0,1-8.64,11.55,36.22,36.22,0,0,1-13.79,4.27c-2.35.25-4.81-.32-7.19-.67a45.08,45.08,0,0,1-15.93-5.92,33.67,33.67,0,0,1-2.74-2.37,34.91,34.91,0,0,0-3-1.79l0,0-.57-.82c-.23-.7-.47-1.4-.87-2.58l4.42,1.84,8,3.28a42.56,42.56,0,0,0,16.76,2.7c5.74-.28,9.53-3.35,11-8.89a23.17,23.17,0,0,0,.61-2.84c1.13-8.27-1-15.15-8.57-19.62-2.29-1.36-4.59-2.68-6.89-4a.78.78,0,0,0-.39-.58Z"/><path class="cls-3" d="M310.36,288.8l-6.94,9.64c-4.13-1.94-8.27-3.84-12.38-5.83-3-1.45-6-3-8.94-4.52,0-.21,0-.41-.05-.62,1.32-1.57,2.76-3.06,3.94-4.73a41.11,41.11,0,0,0,7.29-22.06A67.29,67.29,0,0,1,315,266.92a23.5,23.5,0,0,1,3.14,2.26C316.51,276.11,313.33,282.41,310.36,288.8Z"/><path class="cls-14" d="M232.45,259.43l-9.45.41-10.29.75c-5.68-.16-10.94,1.67-16.22,3.4-3.14,1.19-6.45,2-9,4.47-2.25.83-4.71,1.32-6.7,2.57a56,56,0,0,1-18.14,7.36,18.91,18.91,0,0,1-10.43-.42,10.12,10.12,0,0,1-2-.88,5.25,5.25,0,0,1-.47-8.84,30.05,30.05,0,0,1,12.2-5.53c6.86-1.4,13.78-2.57,20.69-3.7,3.57-.58,7.18-1,10.79-1.24,1.9-.13,3.84.48,5.76.44,8.13-.17,16.25-.54,24.38-.64a54.73,54.73,0,0,1,7.93.84C231.89,258.46,232.16,259.08,232.45,259.43Z"/><path class="cls-14" d="M318.11,269.18a23.5,23.5,0,0,0-3.14-2.26,67.29,67.29,0,0,0-21.69-6.24l-10.34-.81-10.28-.39c1.19-2,3.33-1.88,5.12-1.87,5.58,0,11.15.45,16.73.59,4.14.11,8.29.17,12.43,0a54.13,54.13,0,0,1,11.86.65c6.19,1.1,12.44,1.88,18.61,3.12,5.81,1.16,11.61,2.44,16.4,6.45,3.29,2.78,3.15,6.72-.73,8.81-3.48,1.89-7.22,1.89-11,1.1-6.69-1.4-13.17-3.3-18.94-7.19C321.68,270.16,319.8,269.82,318.11,269.18Z"/><path class="cls-14" d="M195.89,218.26c-5.23,1-10.11.05-15-.91-7.47-1.47-15-2.51-22.29-5a29.27,29.27,0,0,1-13-8.38c-3.45-4-3.2-8.08.6-11.16,2-1.65,4.64-1.63,6.89-1.42,5.52.49,9.77,3.16,13.42,7.65a58.64,58.64,0,0,0,25,17.67C193,217.27,194.44,217.75,195.89,218.26Z"/><path class="cls-15" d="M218.59,213a26,26,0,0,0,3.25-1.52,53.45,53.45,0,0,1,22.6-8.58c17.4-2.12,33.18,1.82,46.48,13.79-5.66-.56-10.65-3-15.65-5.49-.85-.41-1.74-.77-2.6-1.16a2.15,2.15,0,0,0-.14-.26s-.14,0-.21,0l.37.23,1.23,3.7.9.79-.09,0,.82,1.48h-.05c.11.48.21,1,.32,1.43-3.32-1.14-6.63-2.3-9.95-3.41a42.58,42.58,0,0,0-18-1.58,41.78,41.78,0,0,0-15,4.34c-2,1.05-4.19,1.89-6.29,2.82.59-1.12,1.21-2.23,1.75-3.38s.84-2.11,1.25-3.16h0l.71-.78,0,0c.25-.49.5-1,.74-1.46l-.54-.57c-.08.18-.16.35-.23.52v0c-1,.35-2,.68-3,1l-9.45,3.5.72-1.55c0-.25,0-.49.05-.73Z"/><path class="cls-14" d="M310,218.24c1.69-.54,3.42-1,5.08-1.62a48.4,48.4,0,0,0,22.42-17.88,17.66,17.66,0,0,1,12-7.5,10.38,10.38,0,0,1,8.84,2.39,5.78,5.78,0,0,1,1.31,7.83,21.84,21.84,0,0,1-8.88,8.37c-6.18,3.36-13,4.69-19.74,6-3.55.7-7.13,1.3-10.71,1.83-3.33.49-6.69.84-10,1.25Z"/><path class="cls-5" d="M293.24,129.7c.66-.51,1.36-1,2-1.54a4.17,4.17,0,0,0,1.25-4.94,4.56,4.56,0,0,0-3.86-3,4.43,4.43,0,0,0-4.37,2.7,14.49,14.49,0,0,0-.64,2,10.14,10.14,0,0,1-1.73-11.4,12.11,12.11,0,0,1,12-7.24,11.67,11.67,0,0,1,10.62,9.1c1.32,5.23-.51,9.85-5.11,13-.8.54-1.57,1.13-2.35,1.69C298.44,130.19,295.77,131.21,293.24,129.7Z"/><path class="cls-7" d="M202.49,129.7c-.69-.47-1.36-1-2.07-1.41a11.42,11.42,0,0,1-4.92-14.18,12.22,12.22,0,0,1,12.75-7.7,12.07,12.07,0,0,1,10.43,11.37c.13,3-.17,4.13-2.13,7.48-.53-1-1-1.75-1.41-2.53a4.59,4.59,0,0,0-4.62-2.29A3.89,3.89,0,0,0,207,123.7a4.23,4.23,0,0,0,1.73,4.8c.58.41,1.86.35,1.41,1.67l-6.89,0-.85-.59Z"/><path class="cls-11" d="M187.54,268.46c2.5-2.46,5.81-3.28,9-4.47a19.33,19.33,0,0,1,1.54,3.58,31.52,31.52,0,0,0,4.15,11.18c3.11,4.74,6.54,9.26,9.83,13.88,0,.22-.06.43-.09.65l-10.23,4.42L195,288.23c-1.35-3.07-2.83-6.08-4-9.21C189.69,275.55,188.68,272,187.54,268.46Z"/><path class="cls-2" d="M229.59,213c-.41,1.05-.78,2.13-1.25,3.16s-1.16,2.26-1.75,3.38l0,0-.72.78a42.45,42.45,0,0,1-12.18,11.25,11.86,11.86,0,0,0-1.87,1.69c-2.29.8-4.61,1.52-6.87,2.4-4.28,1.65-8.53,3.38-12.79,5.08-4-.4-8-.88-11.95-1.16-3.51-.24-7-.22-10.57-.34a10.1,10.1,0,0,1-3.35-.58c1.38-1.14,3-.75,4.41-.77,10.13-.18,20.14-1.08,29.78-4.43,9.33-3.25,17.77-7.91,24.39-15.45C226.41,216.28,228,214.66,229.59,213Z"/><path class="cls-12" d="M275.82,217.37c-.11-.47-.21-1-.32-1.43a11.71,11.71,0,0,1,3,1.8c9.38,10.73,21.63,16,35.29,18.53,4.85.88,9.84,1,14.76,1.54a17.85,17.85,0,0,1,1.79.22c.15,0,.23.34.62,1l-20.15,1.74c-4.34-1.78-8.63-3.69-13-5.3-8.7-3.2-15.71-8.42-20.57-16.39A15.37,15.37,0,0,0,275.82,217.37Z"/><path class="cls-16" d="M214.91,247.71a37,37,0,0,1,6.55-12.29c3,1.64,4.77,4.16,6.68,6.53l-4,9.76Z"/><path class="cls-17" d="M192.19,240.72c4.26-1.7,8.51-3.43,12.79-5.08,2.26-.88,4.58-1.6,6.87-2.4q-.39,6.47-.77,12.93c-2.21-.67-4.41-1.37-6.63-2C200.37,243,196.27,241.86,192.19,240.72Z"/><path class="cls-16" d="M281.76,251l-3.89-9.11,6.77-6.25c3.08,3.14,4.86,7.14,6.33,11.33Z"/><path class="cls-17" d="M218.54,213.7l-.72,1.55-10.22,2.17a26.66,26.66,0,0,1,2.18-3.65A64.38,64.38,0,0,1,223.54,201a24,24,0,0,1-.75,2.81c-1.37,3.09-2.8,6.16-4.2,9.24v0C218.58,213.21,218.56,213.45,218.54,213.7Z"/><path class="cls-17" d="M255.32,187.29l4.8.13a4.26,4.26,0,0,0,.26.62c-.85.41-1.71.79-2.54,1.24a11.85,11.85,0,0,1-10.65.62c-.65-.27-1.06-1.13-1.58-1.71l2.91-.8Z"/><path class="cls-9" d="M234,189.75l-3.74,1.33c-.7-2.32-1.26-4.62.77-7.18Z"/><path class="cls-9" d="M274,190.66l-3.59-1.14,1.82-5.36A8.38,8.38,0,0,1,274,190.66Z"/><path class="cls-2" d="M231,210.79c-.24.49-.49,1-.74,1.46,0-.51,0-1,0-1.54v0Z"/><path class="cls-12" d="M275.55,216l-.82-1.48Z"/><path class="cls-12" d="M274.82,214.51l-.9-.79Z"/><path class="cls-2" d="M230.28,212.23l-.71.78Z"/><path class="cls-4" d="M225.87,66.87a5.63,5.63,0,0,1,5.1-5.12c2.48,0,5.86,3.28,5.76,5.62A5.53,5.53,0,0,1,231,72.65,5.34,5.34,0,0,1,225.87,66.87Z"/><path class="cls-4" d="M267.56,67.37c-.05-2.72,2.19-5.6,4.61-5.51,3.26.11,5.89,2.51,5.69,5.28-.26,3.58-1.87,5.54-5.26,5.51C269.38,72.63,267.61,70.78,267.56,67.37Z"/><path class="cls-4" d="M255.85,78.64c-.06,2.57-1.38,3.64-4.35,3.53-2.8-.1-3.76-1.19-3.7-4.18a3.57,3.57,0,0,1,3.79-3.82A4.43,4.43,0,0,1,255.85,78.64Z"/><path class="cls-4" d="M251.89,64.62a3.06,3.06,0,0,1-3.31-3c0-1.35,1.95-3.43,3.19-3.47s3.21,2,3.32,3.35A3.08,3.08,0,0,1,251.89,64.62Z"/><path class="cls-4" d="M298.87,160.35c-2.1-.06-2.91-.88-2.78-2.82a3,3,0,0,1,3.31-3,3.36,3.36,0,0,1,3.15,3.25C302.52,159.24,300.87,160.4,298.87,160.35Z"/><path class="cls-4" d="M200.27,144.91c0-3.25,1.56-5,4.41-5,3.2,0,5.12,1.8,5.11,4.81,0,2.77-2.35,5.4-4.8,5.4C202.07,150.1,200.25,148.11,200.27,144.91Z"/><path class="cls-18" d="M282.92,328.41l-4.42-1.84c.4,1.18.64,1.88.87,2.58a4.08,4.08,0,0,0-.09.69c-3.93.55-7.85,1.11-11.79,1.63-1.78.24-3.57.43-5.36.6-2.76.26-5.52.69-8.27.68a122.39,122.39,0,0,1-29-3.7l.12-1.36c0-.25.06-.5.1-.75a1,1,0,0,0,.24-.14s0-.13,0-.2l-.18.38c-1.42.46-2.87.86-4.27,1.39-2.43.93-4.83,1.94-7.25,2.92-.48-2.38-.28-4.55,1.52-6.45,1.37-1.44,1.25-3.35,1.17-5.19a9.77,9.77,0,0,1,1.72.51c8.83,4.48,18.36,5.87,28.08,6,6.88.08,13.77.46,20.67-.58,5.38-.81,10.73-1.45,15.81-3.54,2.22-.91,4.52-1.61,6.79-2.41,0,1.69.09,3.39.13,5.08Z"/><path class="cls-4" d="M225,327.69l-.12,1.36-1.16.92Z"/><path class="cls-4" d="M279.28,329.84a4.08,4.08,0,0,1,.09-.69l.57.82A2.21,2.21,0,0,1,279.28,329.84Z"/><path class="cls-15" d="M231.77,238.63l-6.46-6.94c2.48-3.58,6.26-5.8,10.14-7.74a41.46,41.46,0,0,1,43.17,5.12c2.65,2.09,2.74,2.59.27,5.07-1.35,1.36-2.79,2.62-4.34,4.07-6.52-5-13.28-8.53-21.49-8.47A29.81,29.81,0,0,0,231.77,238.63Z"/><path class="cls-19" d="M282.05,287.47c0,.21,0,.41.05.62a13,13,0,0,0-1.8,1.18c-9.7,8.86-21.15,11.92-34,10.24a42.8,42.8,0,0,1-21.83-11.4,3.11,3.11,0,0,0-.09-.6c1.84-1,3.71-2,5.51-3.11a25.92,25.92,0,0,0,2.69-2.13l1.31.82c10.44,9.1,27,9.22,37.44.76l1.33-.78A14.68,14.68,0,0,0,282.05,287.47Z"/><path class="cls-20" d="M271.3,283.85c-10.48,8.46-27,8.34-37.44-.76a12.21,12.21,0,0,1,1.88-2,68.16,68.16,0,0,0,15.72-14.25l1.41.17a48.23,48.23,0,0,0,15.47,14.31A25,25,0,0,1,271.3,283.85Z"/><path class="cls-16" d="M282.05,287.47a14.68,14.68,0,0,1-9.42-4.4c2.86-3.07,5.82-6.05,7.61-10,1.93-4.22,3.16-8.55,2.7-13.24l10.34.81A41.11,41.11,0,0,1,286,282.74C284.81,284.41,283.37,285.9,282.05,287.47Z"/><path class="cls-16" d="M232.55,282.27a25.92,25.92,0,0,1-2.69,2.13c-1.8,1.11-3.67,2.08-5.51,3.11-1.77-2.11-3.72-4.11-5.27-6.37-4.24-6.17-5.71-13.24-6.37-20.55l10.29-.75c-.26,8,2.75,14.64,7.87,20.53C231.42,281,232,281.64,232.55,282.27Z"/><path class="cls-15" d="M244.1,251l-6.59-6.49a14.57,14.57,0,0,1,10.37-6.4c4.24-.72,8.74-1,12.91.79a55,55,0,0,1,6.31,3.51c1.48.89,1.5,2.07.28,3.28l-1.29,1.29c-3.44,3.48-3.44,3.48-7.83,1.57C253.24,246.32,249.36,246.94,244.1,251Z"/><path class="cls-15" d="M252.87,267l-1.41-.17a33,33,0,0,1-3.8-3.35,5.91,5.91,0,0,1-.1-7.44,7.15,7.15,0,0,1,7.08-2.71,7,7,0,0,1,4.89,6.08c.11,3.89-1.31,5.8-5.06,6.88A12.59,12.59,0,0,0,252.87,267Z"/><path class="cls-15" d="M225.9,220.3l.72-.78Z"/><path class="cls-20" d="M215.82,309.49c-2-1.39-4.18-2.65-6.08-4.21s-3.34-3.42-5.13-5a21.53,21.53,0,0,0-3.28-2,.88.88,0,0,1,.36-.59l10.23-4.42a12,12,0,0,1,2.69,1.64c3.88,4.09,8.62,6.92,13.57,9.45Z"/><path class="cls-21" d="M255.32,187.29l-6.8.1a23.88,23.88,0,0,1-10.08-12,7,7,0,0,1,5.5-9.58c2.28-.33,4.6-.52,6.6,1-.22,1.64-.43,3.19-.63,4.75l.66.13c.14-.43.26-.86.4-1.29,1.33-4,3.93-5.56,8.06-4.87,3.62.6,6.76,3.83,6.78,7.14a8.56,8.56,0,0,1-.71,2.8A23.08,23.08,0,0,1,255.32,187.29Z"/><path class="cls-20" d="M303.81,299c-1.45,1-2.93,2-4.34,3-3.36,2.46-6.68,4.95-10,7.42-4.17-2.13-8.29-4.42-13.13-4.65a24.48,24.48,0,0,0-4.51-1.21c-7.49-.59-15-1-22.48-1.53-.47-.46-.91-1-1.41-1.37s-1.1-.78-1.65-1.16c12.88,1.68,24.33-1.38,34-10.24a13,13,0,0,1,1.8-1.18c3,1.51,5.94,3.07,8.94,4.52,4.11,2,8.25,3.89,12.38,5.83A.78.78,0,0,1,303.81,299Z"/><path class="cls-10" d="M289.54,324.71c2.79,2.32,3,3.34,1.39,7l-8-3.28Z"/><path class="cls-17" d="M212.71,260.59c.66,7.31,2.13,14.38,6.37,20.55,1.55,2.26,3.5,4.26,5.27,6.37a3.1,3.1,0,0,1,.09.61l-4.71,1.69L212,292.63c-3.29-4.62-6.72-9.14-9.83-13.88A31.52,31.52,0,0,1,198,267.57a19.33,19.33,0,0,0-1.54-3.58C201.77,262.26,207,260.43,212.71,260.59Z"/><path class="cls-11" d="M218.54,213.7c0-.25,0-.49.05-.73C218.58,213.21,218.56,213.45,218.54,213.7Z"/><path class="cls-4" d="M272.69,210l-.37-.23c.07,0,.18,0,.21,0a2.15,2.15,0,0,1,.14.26Z"/><path class="cls-4" d="M231,210.79l-.77,0c.07-.17.15-.34.23-.52Z"/><path class="cls-22" d="M212,292.63l7.72-2.82,4.71-1.69a42.86,42.86,0,0,0,21.83,11.39c.55.38,1.13.73,1.65,1.16s.94.91,1.41,1.37c-1.33.09-2.65.11-4,.27-5.59.67-11.16,1.39-16.74,2.09a.48.48,0,0,1-.45,0c-5-2.53-9.69-5.36-13.57-9.45a12,12,0,0,0-2.69-1.64C212,293.06,212,292.85,212,292.63Z"/><path class="cls-23" d="M228.18,304.37a.48.48,0,0,0,.45,0c7.58,4.61,16,6.08,24.66,6.08a51.78,51.78,0,0,0,23-5.7c4.84.23,9,2.52,13.13,4.65.28.38.55.76.85,1.13,2.33,2.91,2.4,4.16.33,7.32-.39.59-.81,1.17-1.22,1.75-2.27.8-4.57,1.5-6.79,2.41-5.08,2.09-10.43,2.73-15.81,3.54-6.9,1-13.79.66-20.67.58-9.72-.13-19.25-1.52-28.08-6a9.77,9.77,0,0,0-1.72-.51c-.45-.55-.92-1.08-1.34-1.65-2.11-2.83-2.14-4.05-.18-7,.32-.5.66-1,1-1.47Z"/><path class="cls-12" d="M225.17,327l.18-.38c0,.07.05.17,0,.2a1,1,0,0,1-.24.14Z"/><path class="cls-24" d="M276.32,304.78a51.78,51.78,0,0,1-23,5.7c-8.65,0-17.08-1.47-24.66-6.08,5.58-.7,11.15-1.42,16.74-2.09,1.31-.16,2.63-.18,4-.27,7.49.5,15,.94,22.48,1.53A24.48,24.48,0,0,1,276.32,304.78Z"/></svg>